<svg width="32" height="32" viewBox="0 0 48 36" fill="none" xmlns="http://www.w3.org/2000/svg">
  <!-- 3D Hockey Puck - Matches navigation design -->
  <g>
    <!-- Drop shadow for depth -->
    <ellipse cx="25" cy="20" rx="14" ry="8" fill="#000" opacity="0.15"/>
    
    <!-- Puck side (cylinder wall) -->
    <path d="M 8 18 Q 8 26 24 26 Q 40 26 40 18 L 40 14 Q 40 10 24 10 Q 8 10 8 14 Z" 
          fill="url(#puckSide)" stroke="#333" stroke-width="0.5"/>
    
    <!-- Left edge highlight -->
    <path d="M 8 14 Q 8 10 24 10 L 8 14" 
          fill="none" stroke="#777" stroke-width="1" opacity="0.8"/>
    
    <!-- Right edge shadow -->
    <path d="M 40 14 Q 40 10 24 10 L 40 14" 
          fill="none" stroke="#111" stroke-width="1" opacity="0.7"/>
    
    <!-- Puck bottom ellipse -->
    <ellipse cx="24" cy="18" rx="16" ry="8" fill="url(#puckBottom)" stroke="#000" stroke-width="0.5" opacity="0.8"/>
    
    <!-- Puck top surface -->
    <ellipse cx="24" cy="14" rx="16" ry="8" fill="url(#puckTop)" stroke="#555" stroke-width="0.8"/>
    
    <!-- Top rim highlight -->
    <ellipse cx="24" cy="14" rx="16" ry="8" fill="none" stroke="url(#rimHighlight)" stroke-width="1.2"/>
    
    <!-- Subtle top surface highlight -->
    <ellipse cx="20" cy="12" rx="8" ry="4" fill="none" stroke="#888" stroke-width="0.6" opacity="0.5"/>
    
    <!-- Center dot -->
    <ellipse cx="24" cy="14" rx="1.2" ry="0.8" fill="#555" opacity="0.7"/>
  </g>
  
  <defs>
    <!-- Cylinder side gradient -->
    <linearGradient id="puckSide" x1="0%" y1="0%" x2="100%" y2="0%">
      <stop offset="0%" style="stop-color:#1a1a1a" />
      <stop offset="15%" style="stop-color:#333" />
      <stop offset="50%" style="stop-color:#555" />
      <stop offset="85%" style="stop-color:#333" />
      <stop offset="100%" style="stop-color:#1a1a1a" />
    </linearGradient>
    
    <!-- Puck bottom (darker) -->
    <radialGradient id="puckBottom" cx="50%" cy="50%" r="80%">
      <stop offset="0%" style="stop-color:#222" />
      <stop offset="100%" style="stop-color:#000" />
    </radialGradient>
    
    <!-- Puck top surface -->
    <radialGradient id="puckTop" cx="35%" cy="35%" r="65%">
      <stop offset="0%" style="stop-color:#666" />
      <stop offset="30%" style="stop-color:#444" />
      <stop offset="70%" style="stop-color:#333" />
      <stop offset="100%" style="stop-color:#222" />
    </radialGradient>
    
    <!-- Rim highlight -->
    <linearGradient id="rimHighlight" x1="0%" y1="0%" x2="100%" y2="0%">
      <stop offset="0%" style="stop-color:#aaa;stop-opacity:0.9" />
      <stop offset="25%" style="stop-color:#777;stop-opacity:0.7" />
      <stop offset="75%" style="stop-color:#444;stop-opacity:0.5" />
      <stop offset="100%" style="stop-color:#222;stop-opacity:0.8" />
    </linearGradient>
  </defs>
</svg>
